<svg version="1.1" id="Layer_1" xmlns="http://www.w3.org/2000/svg" xmlns:xlink="http://www.w3.org/1999/xlink" x="0px" y="0px"
	 width="100%" viewBox="0 0 1024 832" enable-background="new 0 0 1024 832" xml:space="preserve">
<path fill="#000000" opacity="1.000000" stroke="none" 
	d="
M504.570740,603.916504 
	C504.426300,583.100952 504.247345,562.773132 504.188416,542.444946 
	C504.182037,540.241577 503.712799,538.658691 501.857239,537.346497 
	C499.055847,535.365479 496.730743,532.607666 496.251984,529.318115 
	C495.559540,524.560242 492.921692,524.153564 488.994080,524.316284 
	C469.013580,525.143494 450.384979,520.269165 432.906525,510.666748 
	C423.926483,505.733185 416.241241,499.063873 408.389984,492.622162 
	C404.735657,489.623901 400.762177,488.156219 395.996826,488.269043 
	C388.501221,488.446533 380.998138,488.315155 373.498199,488.300659 
	C362.588837,488.279602 360.039459,484.000244 365.354340,473.997345 
	C361.397797,471.418732 357.329193,468.923767 353.422394,466.196991 
	C307.967560,434.471436 302.341309,366.996704 341.909241,328.452820 
	C347.336914,323.165619 351.326996,322.373657 354.737640,325.906586 
	C358.332886,329.630707 357.595734,333.210754 352.105560,338.690002 
	C315.701874,375.021301 325.207275,436.426422 370.828918,460.050262 
	C374.402771,461.900879 376.976562,462.313049 380.563629,459.389435 
	C389.501465,452.104553 400.144501,448.944214 411.668274,448.860474 
	C417.334534,448.819336 423.002258,448.922424 428.667786,448.847656 
	C434.044861,448.776733 435.354828,447.279907 434.566010,441.647461 
	C433.102356,431.196045 430.177185,421.162262 425.639832,411.595825 
	C422.946381,405.916992 423.620026,401.540405 427.394897,397.876495 
	C431.581055,393.813416 436.623169,393.429840 442.009491,396.787720 
	C452.028564,403.033722 460.253479,411.305542 467.779297,420.245178 
	C473.675415,427.248932 479.213409,434.566650 484.671448,441.922272 
	C488.247620,446.741760 487.897736,450.509399 484.214844,453.318726 
	C480.523712,456.134216 476.851471,455.337463 473.223114,450.442474 
	C464.484070,438.652527 455.601196,427.000824 444.819122,416.950989 
	C444.465546,416.621460 444.063599,416.343811 442.950714,415.458374 
	C445.183563,422.916901 447.537933,429.550140 448.449860,436.510651 
	C448.859680,439.638702 449.229279,442.805145 449.204193,445.950867 
	C449.128540,455.451233 441.676056,462.983337 432.138702,463.351349 
	C423.154236,463.698029 414.138550,462.828735 405.174835,464.074677 
	C398.229980,465.040009 392.172607,467.743958 386.037903,473.914368 
	C390.357117,473.914368 393.411041,473.936096 396.464569,473.910156 
	C404.420502,473.842560 411.429260,476.001587 417.520203,481.492645 
	C433.007324,495.454437 450.355774,505.911377 471.414551,509.159973 
	C478.379913,510.234467 485.375916,509.846649 492.353119,510.218903 
	C494.398590,510.328033 495.149994,509.042419 495.929199,507.394958 
	C497.565430,503.935638 500.469452,502.579651 504.181244,503.502411 
	C508.032532,504.459869 509.368622,507.315887 509.343140,511.041565 
	C509.320374,514.374634 509.504395,517.717102 509.313049,521.039001 
	C509.097626,524.778381 510.824829,526.096375 514.354980,526.065857 
	C522.687317,525.993896 531.021851,525.996948 539.353394,526.115356 
	C543.087708,526.168396 544.953979,524.833374 544.708923,520.844238 
	C544.504944,517.524109 544.661316,514.180115 544.700867,510.847260 
	C544.745056,507.114075 546.339111,504.334686 550.069397,503.358002 
	C553.596375,502.434479 556.421204,503.917786 557.987671,507.058258 
	C559.390930,509.871521 561.640503,510.007935 564.228149,510.080750 
	C588.376404,510.760193 610.094299,503.934723 628.356995,488.021484 
	C638.947510,478.793335 649.904724,471.818695 664.660645,473.846252 
	C665.252258,473.927551 665.895142,473.635315 667.626160,473.304840 
	C661.910034,468.001587 656.087463,465.082367 649.191223,464.131836 
	C640.893127,462.988098 632.550964,463.494110 624.225952,463.393036 
	C611.033875,463.232788 603.387756,454.216278 605.080933,441.163025 
	C606.128784,433.084686 608.087585,425.228729 610.673889,416.153381 
	C603.639099,421.460480 599.011169,427.345551 594.350403,433.070526 
	C587.834839,441.073822 581.850525,449.508301 575.594543,457.724579 
	C558.004089,480.827148 524.593262,488.176697 499.088501,474.656250 
	C495.864136,472.946991 493.670593,470.727844 493.842407,466.922394 
	C493.976807,463.946320 495.888428,462.115631 498.418488,460.855774 
	C501.246887,459.447388 503.549194,461.078094 505.958496,462.165985 
	C527.222656,471.767395 549.580261,466.792938 564.152344,449.023804 
	C568.160583,444.136108 571.633667,438.813019 575.446716,433.760986 
	C583.892212,422.571564 592.834412,411.814453 603.721313,402.871521 
	C606.671875,400.447876 609.834229,398.233124 613.100769,396.255005 
	C617.569824,393.548767 622.047791,393.955292 626.097595,397.282684 
	C630.091736,400.564270 631.334778,405.283569 629.052063,410.353851 
	C624.581421,420.283783 621.146057,430.469727 619.727905,441.310699 
	C618.860352,447.943176 619.554749,448.754089 626.409363,448.887390 
	C633.897461,449.032959 641.393799,448.396423 648.876404,449.344330 
	C658.722412,450.591644 667.572754,454.189789 675.168640,460.540497 
	C677.501953,462.491364 679.347168,462.455261 681.892517,461.227783 
	C729.949402,438.053131 740.266479,375.037781 702.059631,337.734863 
	C700.153198,335.873566 698.026550,334.229492 696.197327,332.299561 
	C693.751648,329.719116 693.141235,326.684906 695.302246,323.664276 
	C697.522522,320.560913 700.735168,319.766266 704.155396,321.264465 
	C706.087708,322.110870 707.834290,323.548950 709.423218,324.987213 
	C756.128662,367.264740 747.536560,441.440002 692.418457,472.042786 
	C691.284790,472.672211 690.181030,473.355408 688.914185,474.101288 
	C689.267334,474.908600 689.471436,475.519073 689.783936,476.067780 
	C693.806091,483.128479 690.965027,488.148041 682.742126,488.275818 
	C675.577209,488.387177 668.381287,488.701965 661.250427,488.198639 
	C653.854126,487.676636 648.035889,490.188507 642.668762,494.996643 
	C632.554199,504.057861 621.373657,511.501129 608.725769,516.682983 
	C594.934631,522.333252 580.610291,524.844849 565.770447,524.304626 
	C561.632751,524.153992 558.672607,524.707458 557.875793,529.542969 
	C557.504639,531.795349 556.255127,534.157288 554.322571,535.439026 
	C550.242065,538.145386 549.921082,541.891479 549.952454,546.282532 
	C550.105225,567.614502 550.008789,588.948242 550.008667,610.281311 
	C550.008667,612.787598 550.089417,615.325684 549.071045,617.668457 
	C547.645813,620.947205 545.022095,622.603394 541.486694,622.064026 
	C538.194763,621.561707 536.124146,619.418518 535.726685,616.044189 
	C535.493896,614.068481 535.593933,612.050354 535.592041,610.051270 
	C535.571533,588.895203 535.482483,567.738647 535.613281,546.583496 
	C535.639465,542.348389 534.433167,540.731628 529.921448,540.871277 
	C516.960449,541.272400 519.086121,540.270447 519.030457,551.996765 
	C518.940247,570.996094 519.017090,589.996155 518.980103,608.995850 
	C518.975586,611.318420 518.870972,613.665649 518.521851,615.957153 
	C517.904968,620.005981 515.297791,622.296631 511.298218,622.098206 
	C507.042633,621.887085 504.675964,619.093079 504.451660,614.889648 
	C504.265839,611.406433 504.514801,607.900146 504.570740,603.916504 
z"/>
<path fill="#000000" opacity="1.000000" stroke="none" 
	d="
M426.750305,251.710907 
	C420.551544,266.398468 418.163513,281.403229 418.251129,296.897736 
	C418.273712,300.887268 419.081726,303.404602 423.807159,303.968933 
	C428.599457,304.541199 431.046234,308.252350 430.383942,312.343079 
	C429.737976,316.333130 426.138611,319.003815 421.327667,318.043823 
	C405.817444,314.948883 390.872467,316.681885 376.204132,322.270599 
	C372.137451,323.820068 368.930786,322.241058 367.143829,318.392883 
	C365.429169,314.700470 367.084747,310.840546 371.240356,308.951599 
	C379.032318,305.409790 387.279175,303.446320 395.790070,302.665497 
	C403.705688,301.939270 403.710754,301.994568 403.730865,294.258270 
	C403.889160,233.326294 447.136475,182.368729 507.424713,172.077606 
	C569.523499,161.477463 631.699707,202.480423 646.563232,263.691132 
	C649.216187,274.616455 650.668396,285.616577 650.216797,296.825470 
	C650.072632,300.403839 651.232300,301.955627 654.852539,302.226624 
	C662.832764,302.823914 670.736572,304.029999 678.291992,306.816162 
	C681.743042,308.088776 683.761108,310.548981 683.494080,314.442596 
	C683.256165,317.911011 681.139587,319.792847 678.023376,320.799927 
	C676.322449,321.349609 674.712830,320.805878 673.134460,320.306244 
	C659.327515,315.935272 645.411499,315.119171 631.267578,318.638275 
	C626.501404,319.824158 622.852539,317.672699 621.853149,313.626129 
	C620.810242,309.403351 622.850891,306.288757 627.719910,304.729614 
	C628.828186,304.374664 629.962646,303.896576 631.096436,303.863525 
	C634.831543,303.754639 635.676575,301.648682 635.801086,298.299835 
	C636.575684,277.461731 632.131775,257.780792 621.595520,239.864441 
	C604.428284,210.672272 579.013123,192.337860 545.548706,186.683060 
	C494.808929,178.109085 447.990814,204.025055 426.750305,251.710907 
z"/>
<path fill="#000000" opacity="1.000000" stroke="none" 
	d="
M614.186157,313.670135 
	C618.182251,319.431366 617.668396,322.991669 611.792419,326.136810 
	C607.119019,328.638336 605.196228,331.132080 608.461792,336.123138 
	C609.790710,338.154297 610.402100,340.729248 611.013000,343.139648 
	C612.117310,347.497040 610.204468,351.162537 606.248535,352.290222 
	C602.199219,353.444550 599.364197,351.535065 597.776550,347.975800 
	C594.932922,341.600708 592.727051,334.969666 588.637695,329.153656 
	C571.603455,304.926697 548.076416,293.486115 518.938354,296.742798 
	C489.594269,300.022491 468.963135,316.379303 458.041351,344.201782 
	C455.342682,351.076416 451.957977,353.791168 447.531342,352.170654 
	C442.769623,350.427490 441.789062,346.197388 444.498444,338.983459 
	C445.083954,337.424530 445.573334,335.797302 446.392883,334.365112 
	C448.086578,331.405426 448.361115,329.178802 445.079010,326.789093 
	C442.246918,324.727020 441.954071,321.362732 443.796875,318.219757 
	C445.775787,314.844727 448.970123,313.711639 452.364288,315.302399 
	C455.664825,316.849243 457.281555,315.762238 459.438934,313.301758 
	C477.699097,292.475830 500.636383,281.368011 528.473145,281.859924 
	C555.668213,282.340515 577.972412,293.641479 595.562561,314.327789 
	C596.207886,315.086761 596.840881,315.856354 597.493408,316.609070 
	C597.597107,316.728699 597.773987,316.784912 598.191406,317.034546 
	C603.332886,316.147583 607.382935,309.097351 614.186157,313.670135 
z"/>
</svg>